<?xml version="1.0" encoding="UTF-8" standalone="no"?>
<!-- Created with Inkscape (http://www.inkscape.org/) -->

<svg
   width="210mm"
   height="297mm"
   viewBox="0 0 210 297"
   version="1.1"
   id="svg5"
   inkscape:version="1.1.2 (b8e25be833, 2022-02-05)"
   sodipodi:docname="logo2.svg"
   xmlns:inkscape="http://www.inkscape.org/namespaces/inkscape"
   xmlns:sodipodi="http://sodipodi.sourceforge.net/DTD/sodipodi-0.dtd"
   xmlns="http://www.w3.org/2000/svg"
   xmlns:svg="http://www.w3.org/2000/svg">
  <sodipodi:namedview
     id="namedview7"
     pagecolor="#ffffff"
     bordercolor="#666666"
     borderopacity="1.0"
     inkscape:pageshadow="2"
     inkscape:pageopacity="0.0"
     inkscape:pagecheckerboard="0"
     inkscape:document-units="mm"
     showgrid="false"
     inkscape:snap-global="false"
     inkscape:zoom="1.0595392"
     inkscape:cx="221.32263"
     inkscape:cy="418.10629"
     inkscape:window-width="1920"
     inkscape:window-height="1027"
     inkscape:window-x="-8"
     inkscape:window-y="-8"
     inkscape:window-maximized="1"
     inkscape:current-layer="g13967" />
  <defs
     id="defs2">
    <rect
       x="206.69363"
       y="368.08454"
       width="306.73711"
       height="114.20059"
       id="rect7779" />
  </defs>
  <g
     inkscape:label="Слой 1"
     inkscape:groupmode="layer"
     id="layer1">
    <g
       id="g454"
       transform="translate(38.846611,0.353151)"
       style="fill:#ff5555">
      <g
         id="g13967">
        <g
           id="g13975"
           transform="translate(-7.4914642,1.2485774)">
          <g
             id="g1365"
             style="fill:#144381;fill-opacity:1">
            <path
               id="path53"
               style="fill:#144381;fill-opacity:1;stroke:#000000;stroke-width:0.999999"
               d="M 268.95117,152.16016 A 198.20948,106.11214 0 0 0 70.742188,258.27344 198.20948,106.11214 0 0 0 268.95117,364.38477 198.20948,106.11214 0 0 0 467.16016,258.27344 198.20948,106.11214 0 0 0 268.95117,152.16016 Z m -56.24219,43.75586 a 111.4878,59.685381 0 0 1 1.1875,0.01 c -0.04,0.79914 -0.0605,1.60258 -0.0605,2.41211 v 116.92578 a 111.4878,59.685381 0 0 1 -1.12696,0.0254 111.4878,59.685381 0 0 1 -111.48632,-59.68554 111.4878,59.685381 0 0 1 111.48632,-59.6836 z m 109.94727,0 v 0.004 a 111.4878,59.685382 0 0 1 111.48633,59.6836 111.4878,59.685382 0 0 1 -111.48633,59.68554 111.4878,59.685382 0 0 1 -1.12695,-0.0254 V 198.33789 c 0,-0.80953 -0.0205,-1.61297 -0.0605,-2.41211 a 111.4878,59.685382 0 0 1 1.1875,-0.01 z m -95.86719,0.17382 h 81.6543 v 26.92969 h -81.6543 z m 0,48.05078 h 81.6543 v 26.92969 h -81.6543 z m 1.07422,43.09376 h 81.6543 v 26.92773 h -81.6543 z"
               transform="scale(0.26458333)" />
            <path
               id="path262"
               style="fill:#144381;fill-opacity:1;stroke:#000000;stroke-width:0.0856782"
               d="m 50.795455,58.536636 a 16.982283,9.0915247 0 0 0 -16.982241,9.09146 16.982283,9.0915247 0 0 0 16.982241,9.09146 16.982283,9.0915247 0 0 0 0.171524,-0.004 v -17.81057 c 0,-0.12331 0.0031,-0.24592 0.0092,-0.36765 a 16.982283,9.0915247 0 0 0 -0.180728,-0.002 z" />
            <path
               id="path266"
               style="fill:#144381;fill-opacity:1;stroke:#000000;stroke-width:0.0856782"
               d="m 91.206571,58.536636 a 16.982283,9.0915247 0 0 1 16.982239,9.09146 16.982283,9.0915247 0 0 1 -16.982239,9.09146 16.982283,9.0915247 0 0 1 -0.171524,-0.004 v -17.81057 c 0,-0.12331 -0.0031,-0.24592 -0.0092,-0.36765 a 16.982283,9.0915247 0 0 1 0.180728,-0.002 z" />
          </g>
          <text
             xml:space="preserve"
             transform="matrix(0.26458333,0,0,0.26458333,-20.367666,-2.3508748)"
             id="text7777"
             style="font-size:96px;line-height:1.25;font-family:sans-serif;white-space:pre;shape-inside:url(#rect7779);fill:#004466;fill-opacity:0.533333"><tspan
               x="206.69336"
               y="455.432"
               id="tspan13991">Inside</tspan></text>
        </g>
      </g>
    </g>
  </g>
</svg>
